<svg xmlns="http://www.w3.org/2000/svg" version="1.1" xmlns:xlink="http://www.w3.org/1999/xlink" viewBox="0 0 200 200"><rect width="200" height="200" fill="url('#gradient')"></rect><defs><linearGradient id="gradient" gradientTransform="rotate(45 0.5 0.5)"><stop offset="0%" stop-color="#353664"></stop><stop offset="100%" stop-color="#211c36"></stop></linearGradient></defs><g><g fill="#fcfb9b" transform="matrix(1.888911662225866,0,0,1.888911662225866,8.37748002910692,113.98028971137852)" stroke="#a8dc9f" stroke-width="0.2"><path d="M0.86-10.57L3.95-10.57L4.05-9.33Q5.15-10.76 7.07-10.76L7.07-10.76Q8.72-10.76 9.54-9.78Q10.35-8.79 10.38-6.81L10.38-6.81L10.38 0L7.08 0L7.08-6.67Q7.08-7.47 6.76-7.85Q6.44-8.22 5.59-8.22L5.59-8.22Q4.62-8.22 4.15-7.46L4.15-7.46L4.15 0L0.86 0L0.86-10.57ZM18.59 0L18.50-1.14Q17.45 0.20 15.67 0.20L15.67 0.20Q13.94 0.20 13.04-0.82Q12.15-1.83 12.15-3.72L12.15-3.72L12.15-10.57L15.44-10.57L15.44-3.70Q15.44-2.34 16.76-2.34L16.76-2.34Q17.89-2.34 18.37-3.15L18.37-3.15L18.37-10.57L21.68-10.57L21.68 0L18.59 0ZM26.95-15L26.95 0L23.65 0L23.65-15L26.95-15ZM32.45-15L32.45 0L29.15 0L29.15-15L32.45-15ZM40.40 0L34.63 0L34.63-14.22L39.74-14.22Q42.48-14.22 43.91-13.21Q45.34-12.21 45.34-10.29L45.34-10.29Q45.34-9.19 44.83-8.41Q44.33-7.63 43.34-7.26L43.34-7.26Q44.45-6.96 45.05-6.16Q45.64-5.36 45.64-4.21L45.64-4.21Q45.64-2.12 44.32-1.07Q43.00-0.02 40.40 0L40.40 0ZM40.46-6.04L38.06-6.04L38.06-2.64L40.30-2.64Q41.23-2.64 41.73-3.06Q42.23-3.49 42.23-4.26L42.23-4.26Q42.23-6.04 40.46-6.04L40.46-6.04ZM38.06-11.57L38.06-8.29L39.84-8.29Q40.97-8.30 41.45-8.70Q41.92-9.10 41.92-9.88L41.92-9.88Q41.92-10.78 41.41-11.18Q40.89-11.57 39.74-11.57L39.74-11.57L38.06-11.57ZM53.83-10.64L53.77-7.59L52.69-7.67Q51.13-7.67 50.69-6.69L50.69-6.69L50.69 0L47.40 0L47.40-10.57L50.49-10.57L50.60-9.21Q51.43-10.76 52.91-10.76L52.91-10.76Q53.44-10.76 53.83-10.64L53.83-10.64ZM63.91 0L60.62 0Q60.44-0.32 60.30-0.95L60.30-0.95Q59.39 0.20 57.76 0.20L57.76 0.20Q56.27 0.20 55.22-0.71Q54.18-1.61 54.18-2.98L54.18-2.98Q54.18-4.70 55.45-5.58Q56.72-6.46 59.14-6.46L59.14-6.46L60.16-6.46L60.16-7.01Q60.16-8.47 58.90-8.47L58.90-8.47Q57.72-8.47 57.72-7.31L57.72-7.31L54.43-7.31Q54.43-8.85 55.74-9.80Q57.04-10.76 59.06-10.76Q61.08-10.76 62.26-9.78Q63.43-8.79 63.46-7.07L63.46-7.07L63.46-2.39Q63.48-0.94 63.91-0.17L63.91-0.17L63.91 0ZM58.55-2.15L58.55-2.15Q59.17-2.15 59.58-2.41Q59.98-2.68 60.16-3.01L60.16-3.01L60.16-4.70L59.20-4.70Q57.48-4.70 57.48-3.15L57.48-3.15Q57.48-2.71 57.78-2.43Q58.09-2.15 58.55-2.15ZM68.75-10.57L68.75 0L65.45 0L65.45-10.57L68.75-10.57ZM65.25-13.29L65.25-13.29Q65.25-13.99 65.76-14.44Q66.27-14.89 67.08-14.89Q67.89-14.89 68.40-14.44Q68.91-13.99 68.91-13.29Q68.91-12.59 68.40-12.14Q67.89-11.69 67.08-11.69Q66.27-11.69 65.76-12.14Q65.25-12.59 65.25-13.29ZM70.71-10.57L73.80-10.57L73.91-9.33Q75-10.76 76.92-10.76L76.92-10.76Q78.57-10.76 79.39-9.78Q80.21-8.79 80.23-6.81L80.23-6.81L80.23 0L76.93 0L76.93-6.67Q76.93-7.47 76.61-7.85Q76.29-8.22 75.44-8.22L75.44-8.22Q74.47-8.22 74.00-7.46L74.00-7.46L74.00 0L70.71 0L70.71-10.57ZM87.59-2.97L87.59-2.97Q87.59-3.39 87.15-3.64Q86.71-3.90 85.48-4.17Q84.25-4.44 83.45-4.89Q82.65-5.33 82.23-5.97Q81.81-6.60 81.81-7.42L81.81-7.42Q81.81-8.88 83.01-9.82Q84.21-10.76 86.15-10.76L86.15-10.76Q88.24-10.76 89.51-9.81Q90.78-8.87 90.78-7.32L90.78-7.32L87.48-7.32Q87.48-8.59 86.14-8.59L86.14-8.59Q85.63-8.59 85.27-8.31Q84.92-8.02 84.92-7.59L84.92-7.59Q84.92-7.15 85.35-6.88Q85.78-6.60 86.72-6.43Q87.67-6.25 88.38-6.01L88.38-6.01Q90.76-5.19 90.76-3.07L90.76-3.07Q90.76-1.62 89.48-0.71Q88.19 0.20 86.15 0.20L86.15 0.20Q84.79 0.20 83.73-0.29Q82.67-0.78 82.07-1.62Q81.47-2.46 81.47-3.39L81.47-3.39L84.55-3.39Q84.57-2.66 85.04-2.32Q85.51-1.98 86.24-1.98L86.24-1.98Q86.91-1.98 87.25-2.26Q87.59-2.53 87.59-2.97ZM94.34-3.19L94.34-3.19Q95.12-3.19 95.63-2.73Q96.15-2.27 96.15-1.54Q96.15-0.82 95.63-0.36Q95.12 0.11 94.34 0.11L94.34 0.11Q93.54 0.11 93.03-0.36Q92.52-0.83 92.52-1.54Q92.52-2.26 93.03-2.72Q93.54-3.19 94.34-3.19Z"></path></g></g></svg>